<?xml version="1.0" encoding="UTF-8" standalone="no"?>
<svg
   xmlns:dc="http://purl.org/dc/elements/1.1/"
   xmlns:cc="http://creativecommons.org/ns#"
   xmlns:rdf="http://www.w3.org/1999/02/22-rdf-syntax-ns#"
   xmlns:svg="http://www.w3.org/2000/svg"
   xmlns="http://www.w3.org/2000/svg"
   xmlns:sodipodi="http://sodipodi.sourceforge.net/DTD/sodipodi-0.dtd"
   xmlns:inkscape="http://www.inkscape.org/namespaces/inkscape"
   data-name="Layer 1"
   width="897.31838"
   height="556.97524"
   viewBox="0 0 897.31838 556.97524"
   version="1.1"
   id="svg93"
   sodipodi:docname="undraw_add_information_j2wg.svg"
   inkscape:version="1.0.1 (3bc2e813f5, 2020-09-07)">
  <metadata
     id="metadata99">
    <rdf:RDF>
      <cc:Work
         rdf:about="">
        <dc:format>image/svg+xml</dc:format>
        <dc:type
           rdf:resource="http://purl.org/dc/dcmitype/StillImage" />
      </cc:Work>
    </rdf:RDF>
  </metadata>
  <defs
     id="defs97" />
  <sodipodi:namedview
     pagecolor="#ffffff"
     bordercolor="#666666"
     borderopacity="1"
     objecttolerance="10"
     gridtolerance="10"
     guidetolerance="10"
     inkscape:pageopacity="0"
     inkscape:pageshadow="2"
     inkscape:window-width="1024"
     inkscape:window-height="548"
     id="namedview95"
     showgrid="false"
     inkscape:zoom="0.68225656"
     inkscape:cx="448.65918"
     inkscape:cy="471.79416"
     inkscape:window-x="-8"
     inkscape:window-y="-8"
     inkscape:window-maximized="1"
     inkscape:current-layer="svg93" />
  <path
     d="m 217.33882,450.04668 0.99774,-22.43416 a 72.45559,72.45559 0 0 1 33.79563,-8.555 c -16.23146,13.27042 -14.203,38.85123 -25.20757,56.69681 a 43.58213,43.58213 0 0 1 -31.95921,20.13989 l -13.58307,8.31648 a 73.02986,73.02986 0 0 1 15.39285,-59.1788 70.54231,70.54231 0 0 1 12.96441,-12.04606 c 3.25316,8.57796 7.59922,17.06084 7.59922,17.06084 z"
     fill="#f2f2f2"
     id="path2" />
  <path
     d="m 656.71327,64.14149 h -434.01 a 8.07034,8.07034 0 0 0 -8.06995,8.06 v 204.87 a 8.07888,8.07888 0 0 0 8.06995,8.07 h 434.01 a 8.07677,8.07677 0 0 0 8.06,-8.07 v -204.87 a 8.06821,8.06821 0 0 0 -8.06,-8.06 z"
     fill="#3f3d56"
     id="path18" />
  <path
     d="m 542.07331,162.84151 a 8.06825,8.06825 0 0 0 -8.06005,8.06 v 57.87 a 8.07687,8.07687 0 0 0 8.06005,8.07 h 122.69995 v -74 z"
     fill="#4338ca"
     id="path20" />
  <path
     d="M 871.08772,236.83732 H 542.07759 a 8.07557,8.07557 0 0 1 -8.06636,-8.06636 v -57.86758 a 8.07532,8.07532 0 0 1 8.06636,-8.06606 h 329.01013 a 8.07532,8.07532 0 0 1 8.06636,8.06606 v 57.86758 a 8.07557,8.07557 0 0 1 -8.06636,8.06636 z"
     fill="#4338ca"
     opacity="0.5"
     id="path22" />
  <circle
     cx="586.57111"
     cy="203.53674"
     r="13.08937"
     fill="#ffffff"
     id="circle24" />
  <path
     d="m 860.89375,199.73352 h -236.5141 a 3.89775,3.89775 0 1 1 0,-7.7955 h 236.5141 a 3.89775,3.89775 0 1 1 0,7.7955 z"
     fill="#ffffff"
     id="path26" />
  <path
     d="M 771.06332,215.13547 H 624.37965 a 3.89794,3.89794 0 1 1 0,-7.79588 h 146.68367 a 3.89794,3.89794 0 0 1 0,7.79588 z"
     fill="#ffffff"
     id="path28" />
  <polygon
     points="168.123,501.843 151.404,501.843 151.406,545.537 162.734,545.536 "
     fill="#ffb6b6"
     id="polygon30"
     transform="translate(0,-52)" />
  <path
     d="m 148.51675,489.83817 3.18849,-1.3e-4 12.44833,-5.06245 6.67193,5.06168 h 9e-4 a 14.21764,14.21764 0 0 1 14.21688,14.21665 v 0.462 l -36.52585,0.001 z"
     fill="#2f2e41"
     id="path32" />
  <polygon
     points="83.504,499.161 68.541,491.703 49.051,530.809 59.19,535.862 "
     fill="#ffb6b6"
     id="polygon34"
     transform="translate(0,-52)" />
  <path
     d="m 48.11499,474.20978 2.8537,1.42225 13.39941,1.02234 3.71328,7.50645 8.1e-4,4.1e-4 a 14.21765,14.21765 0 0 1 6.3819,19.06579 l -0.2061,0.41347 -32.69069,-16.29287 z"
     fill="#2f2e41"
     id="path36" />
  <path
     d="m 156.42519,295.09647 -72.026,1.87894 1.25263,35.07352 c 0,0 -1.25263,9.3947 1.25262,11.89995 2.50525,2.50525 3.75788,2.50525 2.50525,6.88944 -1.25263,4.38419 -4.491,46.27371 -4.491,46.27371 0,0 -29.56151,52.26983 -28.30888,53.52246 1.25263,1.25263 2.50525,0 1.25263,3.13156 -1.25262,3.13156 -2.50526,1.87894 -1.25263,3.13156 a 46.12822,46.12822 0 0 1 3.13157,3.75788 h 20.41554 c 0,0 1.14166,-6.26313 1.14166,-6.88944 0,-0.62631 1.25263,-4.38419 1.25263,-5.0105 0,-0.62631 35.66888,-38.4175 35.66888,-38.4175 l 7.51575,-62.63129 18.16308,61.37867 c 0,0 0,53.86291 1.25263,55.11554 1.25263,1.25263 1.25262,0.62631 0.62631,3.13156 -0.62631,2.50525 -3.13157,1.87894 -1.25263,3.75788 1.87894,1.87894 2.50526,-1.25262 1.87894,1.87894 l -0.62631,3.13157 24.06246,0.26877 c 0,0 2.50525,-5.27928 1.25262,-7.15822 -1.25263,-1.87894 -1.17747,-1.366 0.35074,-4.4409 1.52821,-3.0749 2.15451,-3.70117 1.5282,-4.32748 -0.62631,-0.62631 -0.62631,-3.95761 -0.62631,-3.95761 0,0 -9.03095,-123.18392 -9.03095,-125.06286 a 6.24709,6.24709 0 0 1 0.52029,-2.81763 v -2.55037 l -2.39923,-9.03716 z"
     fill="#2f2e41"
     id="path38" />
  <path
     d="m 869.68041,186.34776 a 27.638,27.638 0 1 1 27.638,-27.638 27.638,27.638 0 0 1 -27.638,27.638 z"
     fill="#4338ca"
     id="path40" />
  <path
     d="m 880.58562,155.98354 h -8.17886 v -8.179 a 2.72635,2.72635 0 0 0 -5.4527,0 v 8.179 h -8.179 a 2.72631,2.72631 0 1 0 0,5.45261 h 8.179 v 8.179 a 2.72635,2.72635 0 0 0 5.4527,0 v -8.179 h 8.17886 a 2.726305,2.726305 0 1 0 0,-5.45261 z"
     fill="#ffffff"
     id="path42" />
  <path
     d="m 447.88331,237.2115 h -105.01 a 8.07889,8.07889 0 0 0 -8.07,8.07 v 39.86 h 121.14 v -39.86 a 8.07677,8.07677 0 0 0 -8.06,-8.07 z"
     fill="#4338ca"
     id="path44" />
  <path
     d="M 447.87979,349.2115 H 342.86965 a 8.07558,8.07558 0 0 1 -8.06636,-8.06636 v -95.86758 a 8.07532,8.07532 0 0 1 8.06636,-8.06606 h 105.01014 a 8.07532,8.07532 0 0 1 8.06636,8.06606 v 95.86758 a 8.07557,8.07557 0 0 1 -8.06636,8.06636 z"
     fill="#4338ca"
     opacity="0.5"
     id="path46" />
  <circle
     cx="373.80838"
     cy="269.56284"
     r="13.08937"
     fill="#ffffff"
     id="circle48" />
  <path
     d="m 426.13104,302.54725 h -61.5141 a 3.89775,3.89775 0 1 1 0,-7.7955 h 61.5141 a 3.89775,3.89775 0 1 1 0,7.7955 z"
     fill="#ffffff"
     id="path50" />
  <path
     d="m 394.30061,317.9492 h -29.68367 a 3.89794,3.89794 0 0 1 0,-7.79588 h 29.68367 a 3.89794,3.89794 0 0 1 0,7.79588 z"
     fill="#ffffff"
     id="path52" />
  <path
     d="m 340.68041,377.34776 a 27.638,27.638 0 1 1 27.638,-27.638 27.638,27.638 0 0 1 -27.638,27.638 z"
     fill="#4338ca"
     id="path54" />
  <path
     d="m 351.58562,346.98354 h -8.17886 v -8.179 a 2.72635,2.72635 0 1 0 -5.4527,0 v 8.179 h -8.179 a 2.72631,2.72631 0 1 0 0,5.45261 h 8.179 v 8.179 a 2.72635,2.72635 0 1 0 5.4527,0 v -8.179 h 8.17886 a 2.726305,2.726305 0 1 0 0,-5.45261 z"
     fill="#ffffff"
     id="path56" />
  <path
     d="M 327.88694,176.26645 H 222.8768 a 8.07557,8.07557 0 0 1 -8.06636,-8.06636 V 72.33251 a 8.07532,8.07532 0 0 1 8.06636,-8.06606 h 105.01014 a 8.07532,8.07532 0 0 1 8.06636,8.06606 v 95.86758 a 8.07558,8.07558 0 0 1 -8.06636,8.06636 z"
     fill="#4338ca"
     id="path58" />
  <circle
     cx="253.81624"
     cy="104.61797"
     r="13.08937"
     fill="#4338ca"
     id="circle60" />
  <path
     d="m 306.13892,133.60237 h -61.5141 a 3.89775,3.89775 0 1 1 0,-7.7955 h 61.5141 a 3.89775,3.89775 0 1 1 0,7.7955 z"
     fill="#4338ca"
     id="path62" />
  <path
     d="m 274.30848,149.00432 h -29.68366 a 3.89794,3.89794 0 1 1 0,-7.79588 h 29.68366 a 3.89794,3.89794 0 1 1 0,7.79588 z"
     fill="#4338ca"
     id="path64" />
  <path
     d="M 327.88694,176.26645 H 222.8768 a 8.07557,8.07557 0 0 1 -8.06636,-8.06636 V 72.33251 a 8.07532,8.07532 0 0 1 8.06636,-8.06606 h 105.01014 a 8.07532,8.07532 0 0 1 8.06636,8.06606 v 95.86758 a 8.07558,8.07558 0 0 1 -8.06636,8.06636 z"
     fill="#4338ca"
     opacity="0.5"
     id="path66" />
  <circle
     cx="253.81624"
     cy="104.61797"
     r="13.08937"
     fill="#ffffff"
     id="circle68" />
  <path
     d="m 306.13892,133.60237 h -61.5141 a 3.89775,3.89775 0 1 1 0,-7.7955 h 61.5141 a 3.89775,3.89775 0 1 1 0,7.7955 z"
     fill="#ffffff"
     id="path70" />
  <path
     d="m 274.30848,149.00432 h -29.68366 a 3.89794,3.89794 0 1 1 0,-7.79588 h 29.68366 a 3.89794,3.89794 0 1 1 0,7.79588 z"
     fill="#ffffff"
     id="path72" />
  <circle
     cx="225.04327"
     cy="63.951492"
     r="21"
     fill="#ff6584"
     id="circle74" />
  <path
     d="m 282.67005,503.78524 a 1.18647,1.18647 0 0 1 -1.19007,1.19 h -280.29 a 1.19,1.19 0 0 1 0,-2.38 h 280.29 a 1.1865,1.1865 0 0 1 1.19007,1.19 z"
     fill="#cccccc"
     id="path76" />
  <path
     d="m 220.55481,119.57605 a 9.77074,9.77074 0 0 1 -5.75867,12.43515 9.59965,9.59965 0 0 1 -1.6355,0.4508 l -5.54616,33.9594 -13.01011,-12.01254 7.2613,-30.40677 a 9.80568,9.80568 0 0 1 8.58971,-10.75944 9.54738,9.54738 0 0 1 10.09939,6.33335 z"
     fill="#ffb6b6"
     id="path78" />
  <path
     d="m 124.54032,196.5242 c 0,0 10.09745,-13.34141 46.7389,-12.976 l 20.79776,-7.55641 4.75311,-43.57011 16.63586,3.96092 -2.37655,53.8685 -35.64828,20.59678 -46.73885,9.50621 z"
     fill="#3f3d56"
     id="path80" />
  <circle
     id="a9729a65-ee7a-4a83-8b52-5849077a5ed0"
     data-name="ab6171fa-7d69-4734-b81c-8dff60f9761b"
     cx="119.17533"
     cy="146.98271"
     r="21.74749"
     fill="#ffb6b6" />
  <path
     d="m 82.36727,311.87762 a 0.41692,0.41692 0 0 1 -0.11411,-0.0155 c -0.4015,-0.11217 -0.71869,-0.20037 0.7303,-12.72948 l 1.56387,-9.90346 -1.52674,-8.74459 -2.568,-2.568 4.12725,-4.12686 3.46346,-9.83821 -5.9928,-8.88023 -6.87553,-36.3163 a 28.972,28.972 0 0 1 15.9106,-31.47847 l 7.95773,-2.325 2.89542,-5.30994 a 9.51973,9.51973 0 0 1 8.28668,-4.962 l 14.57262,-0.10908 a 9.51971,9.51971 0 0 1 7.61675,3.7151 l 5.084,6.609 21.08261,7.16176 -3.49559,75.3212 v 0 a 5.23278,5.23278 0 0 1 0.35914,7.69535 c -0.21921,0.22108 -0.3934,0.40127 -0.50072,0.52007 -0.35548,0.50479 0.31138,4.27462 1.1349,7.47546 l 1.056,4.90134 v 0 a 3.01324,3.01324 0 0 0 -0.54773,4.39846 l 1.34649,1.5905 v 0 a 7.59918,7.59918 0 0 1 -6.50745,8.53505 c -19.26748,2.62219 -68.95844,9.3838 -69.05915,9.3838 z"
     fill="#3f3d56"
     id="path83" />
  <path
     d="m 113.61189,167.66532 q -0.13937,-0.30683 -0.27795,-0.61578 c 0.0356,0.001 0.0709,0.006 0.10647,0.007 z"
     fill="#2f2e41"
     id="path85" />
  <path
     d="m 96.82306,126.22419 a 6.053,6.053 0 0 1 3.79179,-1.6394 c 1.40626,0.0453 2.83233,1.31545 2.541,2.692 a 22.34831,22.34831 0 0 1 26.89477,-10.08482 c 3.49521,1.23313 6.9228,3.70014 7.72569,7.31847 a 6.59115,6.59115 0 0 0 0.83032,2.70155 3.084,3.084 0 0 0 3.28228,0.83155 l 0.0345,-0.0102 a 1.02753,1.02753 0 0 1 1.24158,1.45051 l -0.98895,1.84442 a 7.92529,7.92529 0 0 0 3.77572,-0.0803 1.02666,1.02666 0 0 1 1.0902,1.59765 17.895,17.895 0 0 1 -14.26862,7.33428 c -3.9514,-0.0241 -7.94351,-1.38594 -11.78913,-0.47726 a 10.24049,10.24049 0 0 0 -6.88767,14.37555 c -1.18139,-1.2922 -3.46514,-0.98626 -4.67362,0.28071 a 6.41,6.41 0 0 0 -1.3995,4.90462 22.75668,22.75668 0 0 0 2.33628,7.63859 22.83575,22.83575 0 0 1 -13.53662,-40.67793 z"
     fill="#2f2e41"
     id="path87" />
  <path
     d="m 90.83954,343.06822 a 9.77072,9.77072 0 0 1 -2.30232,-13.50905 9.59969,9.59969 0 0 1 1.09205,-1.29827 l -14.67524,-31.12295 17.52685,2.52456 11.24882,29.16783 a 9.80568,9.80568 0 0 1 -0.97986,13.73275 9.54737,9.54737 0 0 1 -11.91024,0.50515 z"
     fill="#ffb6b6"
     id="path89" />
  <path
     d="M 86.39536,326.07416 63.04328,273.59092 62.80941,232.13908 70.1705,209.74861 a 23.92467,23.92467 0 0 1 30.82742,-15.04008 l 0.16208,0.0584 0.068,0.15844 c 0.27206,0.635 6.44593,15.90631 -11.86713,47.3222 l -3.68552,21.49645 12.93216,49.27378 z"
     fill="#3f3d56"
     id="path91" />
</svg>
